<?xml version="1.0" encoding="utf-8"?>
<!-- Generator: Adobe Illustrator 23.0.4, SVG Export Plug-In . SVG Version: 6.00 Build 0)  -->
<svg version="1.1" id="Layer_1" xmlns="http://www.w3.org/2000/svg" xmlns:xlink="http://www.w3.org/1999/xlink" x="0px" y="0px"
	 viewBox="0 0 1920 1080" style="enable-background:new 0 0 1920 1080;" xml:space="preserve">
<style type="text/css">
	.st0{fill:#231F20;}
	.st1{fill:url(#SVGID_1_);}
	.st2{fill:url(#SVGID_2_);}
	.st3{fill:url(#SVGID_3_);}
	.st4{fill:url(#SVGID_4_);}
</style>
<g>
	<path class="st0" d="M1011.3,763.7h-5l-1.5-18.7c-0.6-6.5-1.1-13.5-1.1-16.9l-9.2,30.9h-4.8l-9.6-30.9c-0.1,4.6-0.4,11.2-0.9,17.2
		l-1.4,18.4h-4.9l3.4-40.8h7l8.9,30.2l8.5-30.2h7L1011.3,763.7z"/>
	<path class="st0" d="M1058.5,743.4c0,13.5-6.9,21-17.1,21c-10.1,0-17.1-7.3-17.1-21c0-13.5,7-21.2,17.1-21.2
		C1051.6,722.2,1058.5,729.6,1058.5,743.4z M1029.8,743.4c0,11.9,4.7,16.7,11.6,16.7c7.1,0,11.6-4.9,11.6-16.8
		c0-11.9-4.4-16.9-11.6-16.9C1034.4,726.5,1029.8,731.5,1029.8,743.4z"/>
	<path class="st0" d="M1110.3,763.7h-5l-1.5-18.7c-0.6-6.5-1.1-13.5-1.1-16.9l-9.2,30.9h-4.8l-9.6-30.9c-0.1,4.6-0.4,11.2-0.9,17.2
		l-1.4,18.4h-4.9l3.4-40.8h7l8.9,30.2l8.5-30.2h7L1110.3,763.7z"/>
	<path class="st0" d="M1147.8,727.1h-16.1v13.7h13.9v4.1h-13.9v14.6h17.1v4.1h-22.2v-40.8h21.8L1147.8,727.1z"/>
	<path class="st0" d="M1192.7,763.7h-6.9l-17.2-35.1c0.3,3.3,0.7,7.9,0.7,15.5v19.7h-4.8v-40.8h6.7l17.3,35.2
		c-0.1-1.1-0.7-7.3-0.7-12.4v-22.8h4.8V763.7z"/>
	<path class="st0" d="M1234.5,727.3h-11.4v36.4h-5.1v-36.4h-11.7v-4.4h28.9L1234.5,727.3z"/>
	<path class="st0" d="M1269.3,726.9l-2.8,3.1c-3.1-2.5-5.9-3.6-9.4-3.6c-4.3,0-7.6,2.1-7.6,6c0,3.6,1.7,5.3,9.1,7.6
		c6.7,2,12,4.6,12,12.3c0,7.1-5.3,12-14.3,12c-5.8,0-10.3-2-13.7-5.2l2.8-3.2c3.1,2.5,6.3,4.1,10.8,4.1c5,0,9-2.5,9-7.6
		c0-4.2-2-6-9-8.2c-8-2.4-12-5.5-12-11.7c0-6.1,5.2-10.5,12.6-10.5C1262.5,722.2,1266,723.9,1269.3,726.9z"/>
	<path class="st0" d="M1339.2,743.4c0,13.5-6.9,21-17.1,21c-10.1,0-17.1-7.3-17.1-21c0-13.5,7-21.2,17.1-21.2
		C1332.2,722.2,1339.2,729.6,1339.2,743.4z M1310.5,743.4c0,11.9,4.7,16.7,11.6,16.7c7.1,0,11.6-4.9,11.6-16.8
		c0-11.9-4.4-16.9-11.6-16.9C1315.1,726.5,1310.5,731.5,1310.5,743.4z"/>
	<path class="st0" d="M1355.2,722.9h21.3l-0.6,4.1h-15.6v14.3h13.5v4.1h-13.5v18.2h-5.1V722.9z"/>
	<path class="st0" d="M1417.6,759.2h16.8l-0.6,4.5h-21.3v-40.8h5.1V759.2z"/>
	<path class="st0" d="M1453.3,763.7h-5.1v-40.8h5.1V763.7z"/>
	<path class="st0" d="M1472.1,722.9h21.3l-0.6,4.1h-15.6v14.3h13.5v4.1h-13.5v18.2h-5.1V722.9z"/>
	<path class="st0" d="M1528.7,727.1h-16.1v13.7h13.9v4.1h-13.9v14.6h17.1v4.1h-22.2v-40.8h21.8L1528.7,727.1z"/>
</g>
<radialGradient id="SVGID_1_" cx="656.9421" cy="755.0568" r="287.5347" gradientUnits="userSpaceOnUse">
	<stop  offset="0" style="stop-color:#F6921E"/>
	<stop  offset="9.349825e-02" style="stop-color:#F07922"/>
	<stop  offset="0.2939" style="stop-color:#E4492A"/>
	<stop  offset="0.4471" style="stop-color:#DD2B2F"/>
	<stop  offset="0.5337" style="stop-color:#DA2031"/>
	<stop  offset="1" style="stop-color:#D91C5C"/>
</radialGradient>
<path class="st1" d="M823.9,704.9c13.3,0,24.1-10.8,24.1-24.1c0-13.3-10.8-24.1-24.1-24.1c-13.3,0-24.1,10.8-24.1,24.1
	C799.8,694.1,810.7,704.9,823.9,704.9z M823.9,667.5c7.3,0,13.2,5.9,13.2,13.2c0,7.3-5.9,13.2-13.2,13.2c-7.3,0-13.2-5.9-13.2-13.2
	C810.7,673.5,816.7,667.5,823.9,667.5z"/>
<radialGradient id="SVGID_2_" cx="656.9428" cy="755.0568" r="287.534" gradientUnits="userSpaceOnUse">
	<stop  offset="0" style="stop-color:#F6921E"/>
	<stop  offset="9.349825e-02" style="stop-color:#F07922"/>
	<stop  offset="0.2939" style="stop-color:#E4492A"/>
	<stop  offset="0.4471" style="stop-color:#DD2B2F"/>
	<stop  offset="0.5337" style="stop-color:#DA2031"/>
	<stop  offset="1" style="stop-color:#D91C5C"/>
</radialGradient>
<path class="st2" d="M739,704.9c13.3,0,24.1-10.8,24.1-24.1c0-13.3-10.8-24.1-24.1-24.1c-13.3,0-24.1,10.8-24.1,24.1
	C714.9,694.1,725.7,704.9,739,704.9z M739,667.5c7.3,0,13.2,5.9,13.2,13.2c0,7.3-5.9,13.2-13.2,13.2c-7.3,0-13.2-5.9-13.2-13.2
	C725.8,673.5,731.7,667.5,739,667.5z"/>
<radialGradient id="SVGID_3_" cx="656.9429" cy="755.0563" r="287.5348" gradientUnits="userSpaceOnUse">
	<stop  offset="0" style="stop-color:#F6921E"/>
	<stop  offset="9.349825e-02" style="stop-color:#F07922"/>
	<stop  offset="0.2939" style="stop-color:#E4492A"/>
	<stop  offset="0.4471" style="stop-color:#DD2B2F"/>
	<stop  offset="0.5337" style="stop-color:#DA2031"/>
	<stop  offset="1" style="stop-color:#D91C5C"/>
</radialGradient>
<path class="st3" d="M894.4,774.6c11.7,0,21.2-9.5,21.2-21.2c0-11.7-9.5-21.2-21.2-21.2c-11.7,0-21.2,9.5-21.2,21.2
	C873.1,765.1,882.6,774.6,894.4,774.6z M894.4,743c5.7,0,10.4,4.7,10.4,10.4c0,5.7-4.7,10.4-10.4,10.4c-5.7,0-10.4-4.7-10.4-10.4
	C884,747.7,888.6,743,894.4,743z"/>
<radialGradient id="SVGID_4_" cx="656.9423" cy="755.0563" r="287.5335" gradientUnits="userSpaceOnUse">
	<stop  offset="0" style="stop-color:#F6921E"/>
	<stop  offset="9.349825e-02" style="stop-color:#F07922"/>
	<stop  offset="0.2939" style="stop-color:#E4492A"/>
	<stop  offset="0.4471" style="stop-color:#DD2B2F"/>
	<stop  offset="0.5337" style="stop-color:#DA2031"/>
	<stop  offset="1" style="stop-color:#D91C5C"/>
</radialGradient>
<path class="st4" d="M943.6,819.9c-4.8,0-8.9,2.8-10.9,6.8h-12.4l-7.4-27.1c-0.2-0.9-0.6-3.6,0.4-6.1c1.2-3,4.1-4.3,4.1-4.3
	l-0.2,0.1c3.6-2,6.9-4.5,9.9-7.4c2.1-2.1,2.1-5.6,0-7.7c-2.1-2.1-5.5-2.1-7.7,0c-5.3,5.3-12.1,8.7-19.6,9.8
	c-11.6,1.7-23.2-2.4-31.1-11.1c-2-2.2-5.5-2.4-7.7-0.3c-2.2,2-2.4,5.5-0.3,7.7c4.7,5.2,10.5,9,16.8,11.6v35h-27.2l-13.2-92.3
	c-0.2-1.6-0.2-4.1,1-5.2c1.4-1.4,3.7-0.9,4.8-0.6c4.4,2,8.6,4.5,12.4,7.6c2.3,1.9,5.8,1.5,7.6-0.8c1.9-2.3,1.5-5.8-0.8-7.6
	c-14.7-11.8-33.1-17-51.9-14.6c-13,1.7-24.9,6.8-34.9,15.1c-7.2-6.2-15.7-10.6-25-13c-0.1,0-0.2-0.1-0.2-0.1
	c-1.8-0.4-3.5-0.8-5.3-1.1c-12.7-2.1-25.6-0.2-37.2,5.5c-0.2,0.1-0.3,0.2-0.4,0.3c0.6-5.1-0.8-10.4-4.2-14.8
	c-6.9-8.9-19.8-10.5-28.7-3.6c-4.3,3.4-7,8.2-7.7,13.6c-0.7,5.4,0.8,10.8,4.2,15.1c3.4,4.3,8.2,7.1,13.6,7.7
	c0.4,0.1,0.8,0.1,1.2,0.1c-0.4,1.3-0.7,2.6-0.9,4c-0.8,6.5,1,13,5,18.2l3.9,5c2.8,3.6,6.3,6.1,10.3,7.7l-5.1,19.9
	c-0.4,1.6-0.1,3.3,1,4.7c1,1.3,2.6,2.1,4.3,2.1h8.5l-3.9,27.3h-35.2c-2-4-6.1-6.8-10.9-6.8c-6.8,0-12.3,5.5-12.3,12.3
	c0,6.8,5.5,12.3,12.3,12.3c4.8,0,8.9-2.8,10.9-6.8h259.2c2,4,6.1,6.8,10.9,6.8c6.8,0,12.3-5.5,12.3-12.3
	C955.8,825.4,950.4,819.9,943.6,819.9z M888.3,819l0,0.5c0,0,0.2-4.3,1.7-5.8c1.5-1.5,5.8-1.8,5.8-1.8h2.3c0,0,4.4,0.1,6.3,2
	c1.1,1.1,1.8,2.9,2.2,4.2l0.4,1.7c0,0.1,0,0.1,0,0.1l0-0.1l1.9,6.8h-20.6V819z M754.4,799.4h9.6c1.6,0,3.2-0.7,4.2-2
	s1.4-2.9,1.1-4.5l-13.1-64.2c5.6,2.6,10.7,6.1,15.1,10.6c1.1,1.1,2.5,1.6,3.9,1.6c1.4,0,2.7-0.5,3.8-1.6c0.1-0.1,0.1-0.2,0.2-0.2
	c5.5-5.2,11.8-9.1,18.7-11.8v99.4h-43.4V799.4z M833.8,788.1l-1.2-8.4h0L833.8,788.1z M808.8,784.4c0.1-0.5,0.3-2,1.5-3.1
	c1.4-1.4,3.4-1.5,3.4-1.5h9c0,0,5.3,0.2,7.8,2.7c2.8,2.8,3.9,8.7,3.9,9l5,35.3h-30.5V784.4z M679.3,723.3c-1.6-2-2.3-4.5-1.9-7.1
	c0.3-2.5,1.6-4.8,3.6-6.4c1.7-1.4,3.8-2,5.9-2c2.9,0,5.7,1.3,7.6,3.7c3.2,4.2,2.5,10.2-1.7,13.4c-2,1.6-4.5,2.3-7.1,1.9
	C683.1,726.7,680.8,725.4,679.3,723.3z M698.3,753.4c-4.7-6-3.6-14.7,2.4-19.3c2.4-1.9,5.4-2.9,8.4-2.9c0.6,0,1.1,0,1.7,0.1
	c3.7,0.5,6.9,2.3,9.2,5.2l3.9,5c4.7,6,3.6,14.7-2.4,19.3c-2.9,2.3-6.5,3.3-10.2,2.8c-3.7-0.5-6.9-2.3-9.2-5.2L698.3,753.4z
	 M721.9,810.7c0.3-1.4,1.4-6.2,3.8-8.6c2.1-2.1,6.2-2.6,7.4-2.7h6.2c0.2,0,1.8,0.2,2.9,1.3c1.1,1.1,1.3,2.7,1.4,2.9v23h-24
	L721.9,810.7z"/>
</svg>
